<svg id="visual" viewBox="0 0 960 540" width="960" height="540" xmlns="http://www.w3.org/2000/svg" xmlns:xlink="http://www.w3.org/1999/xlink" version="1.1"><path d="M0 109L14.5 107.2C29 105.3 58 101.7 87.2 101.7C116.3 101.7 145.7 105.3 174.8 100C204 94.7 233 80.3 262 81.2C291 82 320 98 349 104.3C378 110.7 407 107.3 436.2 105.7C465.3 104 494.7 104 523.8 105.7C553 107.3 582 110.7 611 108.8C640 107 669 100 698 93.8C727 87.7 756 82.3 785.2 76C814.3 69.7 843.7 62.3 872.8 62.3C902 62.3 931 69.7 945.5 73.3L960 77L960 0L945.5 0C931 0 902 0 872.8 0C843.7 0 814.3 0 785.2 0C756 0 727 0 698 0C669 0 640 0 611 0C582 0 553 0 523.8 0C494.7 0 465.3 0 436.2 0C407 0 378 0 349 0C320 0 291 0 262 0C233 0 204 0 174.8 0C145.7 0 116.3 0 87.2 0C58 0 29 0 14.5 0L0 0Z" fill="#396d92"></path><path d="M0 287L14.5 288C29 289 58 291 87.2 274.8C116.3 258.7 145.7 224.3 174.8 204.5C204 184.7 233 179.3 262 194.7C291 210 320 246 349 258.5C378 271 407 260 436.2 257.3C465.3 254.7 494.7 260.3 523.8 256.8C553 253.3 582 240.7 611 227.2C640 213.7 669 199.3 698 191.2C727 183 756 181 785.2 201.7C814.3 222.3 843.7 265.7 872.8 277.3C902 289 931 269 945.5 259L960 249L960 75L945.5 71.3C931 67.7 902 60.3 872.8 60.3C843.7 60.3 814.3 67.7 785.2 74C756 80.3 727 85.7 698 91.8C669 98 640 105 611 106.8C582 108.7 553 105.3 523.8 103.7C494.7 102 465.3 102 436.2 103.7C407 105.3 378 108.7 349 102.3C320 96 291 80 262 79.2C233 78.3 204 92.7 174.8 98C145.7 103.3 116.3 99.7 87.2 99.7C58 99.7 29 103.3 14.5 105.2L0 107Z" fill="#7396b2"></path><path d="M0 325L14.5 329.5C29 334 58 343 87.2 335.8C116.3 328.7 145.7 305.3 174.8 284.7C204 264 233 246 262 252.3C291 258.7 320 289.3 349 300.2C378 311 407 302 436.2 303.7C465.3 305.3 494.7 317.7 523.8 321.2C553 324.7 582 319.3 611 308.7C640 298 669 282 698 267.7C727 253.3 756 240.7 785.2 254.2C814.3 267.7 843.7 307.3 872.8 321.7C902 336 931 325 945.5 319.5L960 314L960 247L945.5 257C931 267 902 287 872.8 275.3C843.7 263.7 814.3 220.3 785.2 199.7C756 179 727 181 698 189.2C669 197.3 640 211.7 611 225.2C582 238.7 553 251.3 523.8 254.8C494.7 258.3 465.3 252.7 436.2 255.3C407 258 378 269 349 256.5C320 244 291 208 262 192.7C233 177.3 204 182.7 174.8 202.5C145.7 222.3 116.3 256.7 87.2 272.8C58 289 29 287 14.5 286L0 285Z" fill="#aac0d4"></path><path d="M0 395L14.5 397.7C29 400.3 58 405.7 87.2 407.5C116.3 409.3 145.7 407.7 174.8 405C204 402.3 233 398.7 262 402.3C291 406 320 417 349 412.5C378 408 407 388 436.2 384.3C465.3 380.7 494.7 393.3 523.8 403.3C553 413.3 582 420.7 611 419.8C640 419 669 410 698 406.3C727 402.7 756 404.3 785.2 408.8C814.3 413.3 843.7 420.7 872.8 416.2C902 411.7 931 395.3 945.5 387.2L960 379L960 312L945.5 317.5C931 323 902 334 872.8 319.7C843.7 305.3 814.3 265.7 785.2 252.2C756 238.7 727 251.3 698 265.7C669 280 640 296 611 306.7C582 317.3 553 322.7 523.8 319.2C494.7 315.7 465.3 303.3 436.2 301.7C407 300 378 309 349 298.2C320 287.3 291 256.7 262 250.3C233 244 204 262 174.8 282.7C145.7 303.3 116.3 326.7 87.2 333.8C58 341 29 332 14.5 327.5L0 323Z" fill="#c0d1e1"></path><path d="M0 428L14.5 434.2C29 440.3 58 452.7 87.2 458C116.3 463.3 145.7 461.7 174.8 460.8C204 460 233 460 262 458.2C291 456.3 320 452.7 349 446.3C378 440 407 431 436.2 431C465.3 431 494.7 440 523.8 447.2C553 454.3 582 459.7 611 460.7C640 461.7 669 458.3 698 453C727 447.7 756 440.3 785.2 445.7C814.3 451 843.7 469 872.8 471.7C902 474.3 931 461.7 945.5 455.3L960 449L960 377L945.5 385.2C931 393.3 902 409.7 872.8 414.2C843.7 418.7 814.3 411.3 785.2 406.8C756 402.3 727 400.7 698 404.3C669 408 640 417 611 417.8C582 418.7 553 411.3 523.8 401.3C494.7 391.3 465.3 378.7 436.2 382.3C407 386 378 406 349 410.5C320 415 291 404 262 400.3C233 396.7 204 400.3 174.8 403C145.7 405.7 116.3 407.3 87.2 405.5C58 403.7 29 398.3 14.5 395.7L0 393Z" fill="#aac0d4"></path><path d="M0 471L14.5 473.7C29 476.3 58 481.7 87.2 484.3C116.3 487 145.7 487 174.8 487.8C204 488.7 233 490.3 262 488.5C291 486.7 320 481.3 349 476.8C378 472.3 407 468.7 436.2 471.3C465.3 474 494.7 483 523.8 488.5C553 494 582 496 611 493.3C640 490.7 669 483.3 698 477.8C727 472.3 756 468.7 785.2 475C814.3 481.3 843.7 497.7 872.8 500.5C902 503.3 931 492.7 945.5 487.3L960 482L960 447L945.5 453.3C931 459.7 902 472.3 872.8 469.7C843.7 467 814.3 449 785.2 443.7C756 438.3 727 445.7 698 451C669 456.3 640 459.7 611 458.7C582 457.7 553 452.3 523.8 445.2C494.7 438 465.3 429 436.2 429C407 429 378 438 349 444.3C320 450.7 291 454.3 262 456.2C233 458 204 458 174.8 458.8C145.7 459.7 116.3 461.3 87.2 456C58 450.7 29 438.3 14.5 432.2L0 426Z" fill="#7396b2"></path><path d="M0 541L14.5 541C29 541 58 541 87.2 541C116.3 541 145.7 541 174.8 541C204 541 233 541 262 541C291 541 320 541 349 541C378 541 407 541 436.2 541C465.3 541 494.7 541 523.8 541C553 541 582 541 611 541C640 541 669 541 698 541C727 541 756 541 785.2 541C814.3 541 843.7 541 872.8 541C902 541 931 541 945.5 541L960 541L960 480L945.5 485.3C931 490.7 902 501.3 872.8 498.5C843.7 495.7 814.3 479.3 785.2 473C756 466.7 727 470.3 698 475.8C669 481.3 640 488.7 611 491.3C582 494 553 492 523.8 486.5C494.7 481 465.3 472 436.2 469.3C407 466.7 378 470.3 349 474.8C320 479.3 291 484.7 262 486.5C233 488.3 204 486.7 174.8 485.8C145.7 485 116.3 485 87.2 482.3C58 479.7 29 474.3 14.5 471.7L0 469Z" fill="#396d92"></path></svg>