<svg id="visual" viewBox="0 0 960 540" width="960" height="540" xmlns="http://www.w3.org/2000/svg" xmlns:xlink="http://www.w3.org/1999/xlink" version="1.1"><path d="M0 44L14.5 45C29 46 58 48 87.2 46.2C116.3 44.3 145.7 38.7 174.8 39.5C204 40.3 233 47.7 262 52.2C291 56.7 320 58.3 349 56.5C378 54.7 407 49.3 436.2 46.7C465.3 44 494.7 44 523.8 45.8C553 47.7 582 51.3 611 49.5C640 47.7 669 40.3 698 41.2C727 42 756 51 785.2 51C814.3 51 843.7 42 872.8 38.5C902 35 931 37 945.5 38L960 39L960 0L945.5 0C931 0 902 0 872.8 0C843.7 0 814.3 0 785.2 0C756 0 727 0 698 0C669 0 640 0 611 0C582 0 553 0 523.8 0C494.7 0 465.3 0 436.2 0C407 0 378 0 349 0C320 0 291 0 262 0C233 0 204 0 174.8 0C145.7 0 116.3 0 87.2 0C58 0 29 0 14.5 0L0 0Z" fill="#396d92"></path><path d="M0 77L14.5 79.7C29 82.3 58 87.7 87.2 90.3C116.3 93 145.7 93 174.8 93.8C204 94.7 233 96.3 262 97.2C291 98 320 98 349 99C378 100 407 102 436.2 100.2C465.3 98.3 494.7 92.7 523.8 97.2C553 101.7 582 116.3 611 118.2C640 120 669 109 698 108C727 107 756 116 785.2 109.7C814.3 103.3 843.7 81.7 872.8 73.7C902 65.7 931 71.3 945.5 74.2L960 77L960 37L945.5 36C931 35 902 33 872.8 36.5C843.7 40 814.3 49 785.2 49C756 49 727 40 698 39.2C669 38.3 640 45.7 611 47.5C582 49.3 553 45.7 523.8 43.8C494.7 42 465.3 42 436.2 44.7C407 47.3 378 52.7 349 54.5C320 56.3 291 54.7 262 50.2C233 45.7 204 38.3 174.8 37.5C145.7 36.7 116.3 42.3 87.2 44.2C58 46 29 44 14.5 43L0 42Z" fill="#7396b2"></path><path d="M0 114L14.5 116.8C29 119.7 58 125.3 87.2 129.8C116.3 134.3 145.7 137.7 174.8 136.7C204 135.7 233 130.3 262 126.8C291 123.3 320 121.7 349 125.3C378 129 407 138 436.2 136.2C465.3 134.3 494.7 121.7 523.8 123.5C553 125.3 582 141.7 611 147C640 152.3 669 146.7 698 145.7C727 144.7 756 148.3 785.2 138.5C814.3 128.7 843.7 105.3 872.8 102.7C902 100 931 118 945.5 127L960 136L960 75L945.5 72.2C931 69.3 902 63.7 872.8 71.7C843.7 79.7 814.3 101.3 785.2 107.7C756 114 727 105 698 106C669 107 640 118 611 116.2C582 114.3 553 99.7 523.8 95.2C494.7 90.7 465.3 96.3 436.2 98.2C407 100 378 98 349 97C320 96 291 96 262 95.2C233 94.3 204 92.7 174.8 91.8C145.7 91 116.3 91 87.2 88.3C58 85.7 29 80.3 14.5 77.7L0 75Z" fill="#aac0d4"></path><path d="M0 282L14.5 278.3C29 274.7 58 267.3 87.2 254.7C116.3 242 145.7 224 174.8 224C204 224 233 242 262 257.3C291 272.7 320 285.3 349 298C378 310.7 407 323.3 436.2 320.7C465.3 318 494.7 300 523.8 282.8C553 265.7 582 249.3 611 240.3C640 231.3 669 229.7 698 239.7C727 249.7 756 271.3 785.2 274C814.3 276.7 843.7 260.3 872.8 259.3C902 258.3 931 272.7 945.5 279.8L960 287L960 134L945.5 125C931 116 902 98 872.8 100.7C843.7 103.3 814.3 126.7 785.2 136.5C756 146.3 727 142.7 698 143.7C669 144.7 640 150.3 611 145C582 139.7 553 123.3 523.8 121.5C494.7 119.7 465.3 132.3 436.2 134.2C407 136 378 127 349 123.3C320 119.7 291 121.3 262 124.8C233 128.3 204 133.7 174.8 134.7C145.7 135.7 116.3 132.3 87.2 127.8C58 123.3 29 117.7 14.5 114.8L0 112Z" fill="#c0d1e1"></path><path d="M0 368L14.5 384.2C29 400.3 58 432.7 87.2 433.7C116.3 434.7 145.7 404.3 174.8 389.2C204 374 233 374 262 373C291 372 320 370 349 377.2C378 384.3 407 400.7 436.2 400.7C465.3 400.7 494.7 384.3 523.8 387C553 389.7 582 411.3 611 409.5C640 407.7 669 382.3 698 371.5C727 360.7 756 364.3 785.2 366.2C814.3 368 843.7 368 872.8 368C902 368 931 368 945.5 368L960 368L960 285L945.5 277.8C931 270.7 902 256.3 872.8 257.3C843.7 258.3 814.3 274.7 785.2 272C756 269.3 727 247.7 698 237.7C669 227.7 640 229.3 611 238.3C582 247.3 553 263.7 523.8 280.8C494.7 298 465.3 316 436.2 318.7C407 321.3 378 308.7 349 296C320 283.3 291 270.7 262 255.3C233 240 204 222 174.8 222C145.7 222 116.3 240 87.2 252.7C58 265.3 29 272.7 14.5 276.3L0 280Z" fill="#aac0d4"></path><path d="M0 471L14.5 477.3C29 483.7 58 496.3 87.2 493.7C116.3 491 145.7 473 174.8 467.5C204 462 233 469 262 475.2C291 481.3 320 486.7 349 491.2C378 495.7 407 499.3 436.2 496.7C465.3 494 494.7 485 523.8 482.3C553 479.7 582 483.3 611 479.8C640 476.3 669 465.7 698 459.3C727 453 756 451 785.2 453.7C814.3 456.3 843.7 463.7 872.8 465.5C902 467.3 931 463.7 945.5 461.8L960 460L960 366L945.5 366C931 366 902 366 872.8 366C843.7 366 814.3 366 785.2 364.2C756 362.3 727 358.7 698 369.5C669 380.3 640 405.7 611 407.5C582 409.3 553 387.7 523.8 385C494.7 382.3 465.3 398.7 436.2 398.7C407 398.7 378 382.3 349 375.2C320 368 291 370 262 371C233 372 204 372 174.8 387.2C145.7 402.3 116.3 432.7 87.2 431.7C58 430.7 29 398.3 14.5 382.2L0 366Z" fill="#7396b2"></path><path d="M0 541L14.5 541C29 541 58 541 87.2 541C116.3 541 145.7 541 174.8 541C204 541 233 541 262 541C291 541 320 541 349 541C378 541 407 541 436.2 541C465.3 541 494.7 541 523.8 541C553 541 582 541 611 541C640 541 669 541 698 541C727 541 756 541 785.2 541C814.3 541 843.7 541 872.8 541C902 541 931 541 945.5 541L960 541L960 458L945.5 459.8C931 461.7 902 465.3 872.8 463.5C843.7 461.7 814.3 454.3 785.2 451.7C756 449 727 451 698 457.3C669 463.7 640 474.3 611 477.8C582 481.3 553 477.7 523.8 480.3C494.7 483 465.3 492 436.2 494.7C407 497.3 378 493.7 349 489.2C320 484.7 291 479.3 262 473.2C233 467 204 460 174.8 465.5C145.7 471 116.3 489 87.2 491.7C58 494.3 29 481.7 14.5 475.3L0 469Z" fill="#396d92"></path></svg>