<svg id="visual" viewBox="0 0 960 540" width="960" height="540" xmlns="http://www.w3.org/2000/svg" xmlns:xlink="http://www.w3.org/1999/xlink" version="1.1"><path d="M0 39L14.5 41.7C29 44.3 58 49.7 87.2 47C116.3 44.3 145.7 33.7 174.8 34.5C204 35.3 233 47.7 262 51.2C291 54.7 320 49.3 349 43.2C378 37 407 30 436.2 31C465.3 32 494.7 41 523.8 41C553 41 582 32 611 32C640 32 669 41 698 46.3C727 51.7 756 53.3 785.2 52.3C814.3 51.3 843.7 47.7 872.8 42.3C902 37 931 30 945.5 26.5L960 23L960 0L945.5 0C931 0 902 0 872.8 0C843.7 0 814.3 0 785.2 0C756 0 727 0 698 0C669 0 640 0 611 0C582 0 553 0 523.8 0C494.7 0 465.3 0 436.2 0C407 0 378 0 349 0C320 0 291 0 262 0C233 0 204 0 174.8 0C145.7 0 116.3 0 87.2 0C58 0 29 0 14.5 0L0 0Z" fill="#396d92"></path><path d="M0 82L14.5 87.3C29 92.7 58 103.3 87.2 106C116.3 108.7 145.7 103.3 174.8 102.5C204 101.7 233 105.3 262 102.7C291 100 320 91 349 81.2C378 71.3 407 60.7 436.2 59.8C465.3 59 494.7 68 523.8 75.2C553 82.3 582 87.7 611 87.7C640 87.7 669 82.3 698 83.2C727 84 756 91 785.2 99C814.3 107 843.7 116 872.8 111.5C902 107 931 89 945.5 80L960 71L960 21L945.5 24.5C931 28 902 35 872.8 40.3C843.7 45.7 814.3 49.3 785.2 50.3C756 51.3 727 49.7 698 44.3C669 39 640 30 611 30C582 30 553 39 523.8 39C494.7 39 465.3 30 436.2 29C407 28 378 35 349 41.2C320 47.3 291 52.7 262 49.2C233 45.7 204 33.3 174.8 32.5C145.7 31.7 116.3 42.3 87.2 45C58 47.7 29 42.3 14.5 39.7L0 37Z" fill="#7396b2"></path><path d="M0 131L14.5 148C29 165 58 199 87.2 218.7C116.3 238.3 145.7 243.7 174.8 241C204 238.3 233 227.7 262 220.5C291 213.3 320 209.7 349 200.7C378 191.7 407 177.3 436.2 170.2C465.3 163 494.7 163 523.8 162.2C553 161.3 582 159.7 611 157.8C640 156 669 154 698 163.8C727 173.7 756 195.3 785.2 208.8C814.3 222.3 843.7 227.7 872.8 225.8C902 224 931 215 945.5 210.5L960 206L960 69L945.5 78C931 87 902 105 872.8 109.5C843.7 114 814.3 105 785.2 97C756 89 727 82 698 81.2C669 80.3 640 85.7 611 85.7C582 85.7 553 80.3 523.8 73.2C494.7 66 465.3 57 436.2 57.8C407 58.7 378 69.3 349 79.2C320 89 291 98 262 100.7C233 103.3 204 99.7 174.8 100.5C145.7 101.3 116.3 106.7 87.2 104C58 101.3 29 90.7 14.5 85.3L0 80Z" fill="#aac0d4"></path><path d="M0 293L14.5 302C29 311 58 329 87.2 339.7C116.3 350.3 145.7 353.7 174.8 351.8C204 350 233 343 262 342.2C291 341.3 320 346.7 349 354.7C378 362.7 407 373.3 436.2 377.8C465.3 382.3 494.7 380.7 523.8 368.2C553 355.7 582 332.3 611 327C640 321.7 669 334.3 698 341.5C727 348.7 756 350.3 785.2 355.7C814.3 361 843.7 370 872.8 365.5C902 361 931 343 945.5 334L960 325L960 204L945.5 208.5C931 213 902 222 872.8 223.8C843.7 225.7 814.3 220.3 785.2 206.8C756 193.3 727 171.7 698 161.8C669 152 640 154 611 155.8C582 157.7 553 159.3 523.8 160.2C494.7 161 465.3 161 436.2 168.2C407 175.3 378 189.7 349 198.7C320 207.7 291 211.3 262 218.5C233 225.7 204 236.3 174.8 239C145.7 241.7 116.3 236.3 87.2 216.7C58 197 29 163 14.5 146L0 129Z" fill="#c0d1e1"></path><path d="M0 395L14.5 396C29 397 58 399 87.2 400C116.3 401 145.7 401 174.8 400C204 399 233 397 262 403.2C291 409.3 320 423.7 349 429.2C378 434.7 407 431.3 436.2 428.7C465.3 426 494.7 424 523.8 421.2C553 418.3 582 414.7 611 414.7C640 414.7 669 418.3 698 423.8C727 429.3 756 436.7 785.2 446.7C814.3 456.7 843.7 469.3 872.8 470.2C902 471 931 460 945.5 454.5L960 449L960 323L945.5 332C931 341 902 359 872.8 363.5C843.7 368 814.3 359 785.2 353.7C756 348.3 727 346.7 698 339.5C669 332.3 640 319.7 611 325C582 330.3 553 353.7 523.8 366.2C494.7 378.7 465.3 380.3 436.2 375.8C407 371.3 378 360.7 349 352.7C320 344.7 291 339.3 262 340.2C233 341 204 348 174.8 349.8C145.7 351.7 116.3 348.3 87.2 337.7C58 327 29 309 14.5 300L0 291Z" fill="#aac0d4"></path><path d="M0 492L14.5 489.3C29 486.7 58 481.3 87.2 481.3C116.3 481.3 145.7 486.7 174.8 486.7C204 486.7 233 481.3 262 484.2C291 487 320 498 349 505.2C378 512.3 407 515.7 436.2 515.7C465.3 515.7 494.7 512.3 523.8 507C553 501.7 582 494.3 611 496C640 497.7 669 508.3 698 512.8C727 517.3 756 515.7 785.2 514C814.3 512.3 843.7 510.7 872.8 508.8C902 507 931 505 945.5 504L960 503L960 447L945.5 452.5C931 458 902 469 872.8 468.2C843.7 467.3 814.3 454.7 785.2 444.7C756 434.7 727 427.3 698 421.8C669 416.3 640 412.7 611 412.7C582 412.7 553 416.3 523.8 419.2C494.7 422 465.3 424 436.2 426.7C407 429.3 378 432.7 349 427.2C320 421.7 291 407.3 262 401.2C233 395 204 397 174.8 398C145.7 399 116.3 399 87.2 398C58 397 29 395 14.5 394L0 393Z" fill="#7396b2"></path><path d="M0 541L14.5 541C29 541 58 541 87.2 541C116.3 541 145.7 541 174.8 541C204 541 233 541 262 541C291 541 320 541 349 541C378 541 407 541 436.2 541C465.3 541 494.7 541 523.8 541C553 541 582 541 611 541C640 541 669 541 698 541C727 541 756 541 785.2 541C814.3 541 843.7 541 872.8 541C902 541 931 541 945.5 541L960 541L960 501L945.5 502C931 503 902 505 872.8 506.8C843.7 508.7 814.3 510.3 785.2 512C756 513.7 727 515.3 698 510.8C669 506.3 640 495.7 611 494C582 492.3 553 499.7 523.8 505C494.7 510.3 465.3 513.7 436.2 513.7C407 513.7 378 510.3 349 503.2C320 496 291 485 262 482.2C233 479.3 204 484.7 174.8 484.7C145.7 484.7 116.3 479.3 87.2 479.3C58 479.3 29 484.7 14.5 487.3L0 490Z" fill="#396d92"></path></svg>