<svg id="visual" viewBox="0 0 960 540" width="960" height="540" xmlns="http://www.w3.org/2000/svg" xmlns:xlink="http://www.w3.org/1999/xlink" version="1.1"><path d="M0 28L14.5 35.2C29 42.3 58 56.7 87.2 60.3C116.3 64 145.7 57 174.8 56.2C204 55.3 233 60.7 262 58.8C291 57 320 48 349 46.2C378 44.3 407 49.7 436.2 47.8C465.3 46 494.7 37 523.8 39.7C553 42.3 582 56.7 611 63.8C640 71 669 71 698 67.5C727 64 756 57 785.2 54.3C814.3 51.7 843.7 53.3 872.8 52.3C902 51.3 931 47.7 945.5 45.8L960 44L960 0L945.5 0C931 0 902 0 872.8 0C843.7 0 814.3 0 785.2 0C756 0 727 0 698 0C669 0 640 0 611 0C582 0 553 0 523.8 0C494.7 0 465.3 0 436.2 0C407 0 378 0 349 0C320 0 291 0 262 0C233 0 204 0 174.8 0C145.7 0 116.3 0 87.2 0C58 0 29 0 14.5 0L0 0Z" fill="#396d92"></path><path d="M0 109L14.5 114.3C29 119.7 58 130.3 87.2 138.5C116.3 146.7 145.7 152.3 174.8 147.8C204 143.3 233 128.7 262 121.3C291 114 320 114 349 115.8C378 117.7 407 121.3 436.2 125.8C465.3 130.3 494.7 135.7 523.8 144.7C553 153.7 582 166.3 611 168.2C640 170 669 161 698 152C727 143 756 134 785.2 132.2C814.3 130.3 843.7 135.7 872.8 130.3C902 125 931 109 945.5 101L960 93L960 42L945.5 43.8C931 45.7 902 49.3 872.8 50.3C843.7 51.3 814.3 49.7 785.2 52.3C756 55 727 62 698 65.5C669 69 640 69 611 61.8C582 54.7 553 40.3 523.8 37.7C494.7 35 465.3 44 436.2 45.8C407 47.7 378 42.3 349 44.2C320 46 291 55 262 56.8C233 58.7 204 53.3 174.8 54.2C145.7 55 116.3 62 87.2 58.3C58 54.7 29 40.3 14.5 33.2L0 26Z" fill="#7396b2"></path><path d="M0 303L14.5 301.3C29 299.7 58 296.3 87.2 295.5C116.3 294.7 145.7 296.3 174.8 304.3C204 312.3 233 326.7 262 324C291 321.3 320 301.7 349 296.3C378 291 407 300 436.2 291C465.3 282 494.7 255 523.8 247.8C553 240.7 582 253.3 611 274.8C640 296.3 669 326.7 698 325.7C727 324.7 756 292.3 785.2 269.8C814.3 247.3 843.7 234.7 872.8 233.8C902 233 931 244 945.5 249.5L960 255L960 91L945.5 99C931 107 902 123 872.8 128.3C843.7 133.7 814.3 128.3 785.2 130.2C756 132 727 141 698 150C669 159 640 168 611 166.2C582 164.3 553 151.7 523.8 142.7C494.7 133.7 465.3 128.3 436.2 123.8C407 119.3 378 115.7 349 113.8C320 112 291 112 262 119.3C233 126.7 204 141.3 174.8 145.8C145.7 150.3 116.3 144.7 87.2 136.5C58 128.3 29 117.7 14.5 112.3L0 107Z" fill="#aac0d4"></path><path d="M0 341L14.5 344.7C29 348.3 58 355.7 87.2 362.8C116.3 370 145.7 377 174.8 378.8C204 380.7 233 377.3 262 369.3C291 361.3 320 348.7 349 347.7C378 346.7 407 357.3 436.2 354.7C465.3 352 494.7 336 523.8 325.2C553 314.3 582 308.7 611 321.2C640 333.7 669 364.3 698 368C727 371.7 756 348.3 785.2 335.8C814.3 323.3 843.7 321.7 872.8 325.3C902 329 931 338 945.5 342.5L960 347L960 253L945.5 247.5C931 242 902 231 872.8 231.8C843.7 232.7 814.3 245.3 785.2 267.8C756 290.3 727 322.7 698 323.7C669 324.7 640 294.3 611 272.8C582 251.3 553 238.7 523.8 245.8C494.7 253 465.3 280 436.2 289C407 298 378 289 349 294.3C320 299.7 291 319.3 262 322C233 324.7 204 310.3 174.8 302.3C145.7 294.3 116.3 292.7 87.2 293.5C58 294.3 29 297.7 14.5 299.3L0 301Z" fill="#c0d1e1"></path><path d="M0 363L14.5 367.5C29 372 58 381 87.2 389C116.3 397 145.7 404 174.8 411.2C204 418.3 233 425.7 262 416.7C291 407.7 320 382.3 349 380.5C378 378.7 407 400.3 436.2 404C465.3 407.7 494.7 393.3 523.8 377.2C553 361 582 343 611 355.7C640 368.3 669 411.7 698 419.8C727 428 756 401 785.2 385.7C814.3 370.3 843.7 366.7 872.8 371.2C902 375.7 931 388.3 945.5 394.7L960 401L960 345L945.5 340.5C931 336 902 327 872.8 323.3C843.7 319.7 814.3 321.3 785.2 333.8C756 346.3 727 369.7 698 366C669 362.3 640 331.7 611 319.2C582 306.7 553 312.3 523.8 323.2C494.7 334 465.3 350 436.2 352.7C407 355.3 378 344.7 349 345.7C320 346.7 291 359.3 262 367.3C233 375.3 204 378.7 174.8 376.8C145.7 375 116.3 368 87.2 360.8C58 353.7 29 346.3 14.5 342.7L0 339Z" fill="#aac0d4"></path><path d="M0 417L14.5 416C29 415 58 413 87.2 420.2C116.3 427.3 145.7 443.7 174.8 451.8C204 460 233 460 262 446.5C291 433 320 406 349 406.8C378 407.7 407 436.3 436.2 441.7C465.3 447 494.7 429 523.8 416.5C553 404 582 397 611 407.8C640 418.7 669 447.3 698 452.7C727 458 756 440 785.2 425.7C814.3 411.3 843.7 400.7 872.8 404.3C902 408 931 426 945.5 435L960 444L960 399L945.5 392.7C931 386.3 902 373.7 872.8 369.2C843.7 364.7 814.3 368.3 785.2 383.7C756 399 727 426 698 417.8C669 409.7 640 366.3 611 353.7C582 341 553 359 523.8 375.2C494.7 391.3 465.3 405.7 436.2 402C407 398.3 378 376.7 349 378.5C320 380.3 291 405.7 262 414.7C233 423.7 204 416.3 174.8 409.2C145.7 402 116.3 395 87.2 387C58 379 29 370 14.5 365.5L0 361Z" fill="#7396b2"></path><path d="M0 541L14.5 541C29 541 58 541 87.2 541C116.3 541 145.7 541 174.8 541C204 541 233 541 262 541C291 541 320 541 349 541C378 541 407 541 436.2 541C465.3 541 494.7 541 523.8 541C553 541 582 541 611 541C640 541 669 541 698 541C727 541 756 541 785.2 541C814.3 541 843.7 541 872.8 541C902 541 931 541 945.5 541L960 541L960 442L945.5 433C931 424 902 406 872.8 402.3C843.7 398.7 814.3 409.3 785.2 423.7C756 438 727 456 698 450.7C669 445.3 640 416.7 611 405.8C582 395 553 402 523.8 414.5C494.7 427 465.3 445 436.2 439.7C407 434.3 378 405.7 349 404.8C320 404 291 431 262 444.5C233 458 204 458 174.8 449.8C145.7 441.7 116.3 425.3 87.2 418.2C58 411 29 413 14.5 414L0 415Z" fill="#396d92"></path></svg>