<svg id="visual" viewBox="0 0 675 900" width="675" height="900" xmlns="http://www.w3.org/2000/svg" xmlns:xlink="http://www.w3.org/1999/xlink" version="1.1"><path d="M0 82L10.2 92.5C20.3 103 40.7 124 61.2 121C81.7 118 102.3 91 122.8 86.5C143.3 82 163.7 100 184 113.5C204.3 127 224.7 136 245.2 136C265.7 136 286.3 127 306.8 116.5C327.3 106 347.7 94 368.2 94C388.7 94 409.3 106 429.8 115C450.3 124 470.7 130 491 121C511.3 112 531.7 88 552.2 91C572.7 94 593.3 124 613.8 125.5C634.3 127 654.7 100 664.8 86.5L675 73L675 0L664.8 0C654.7 0 634.3 0 613.8 0C593.3 0 572.7 0 552.2 0C531.7 0 511.3 0 491 0C470.7 0 450.3 0 429.8 0C409.3 0 388.7 0 368.2 0C347.7 0 327.3 0 306.8 0C286.3 0 265.7 0 245.2 0C224.7 0 204.3 0 184 0C163.7 0 143.3 0 122.8 0C102.3 0 81.7 0 61.2 0C40.7 0 20.3 0 10.2 0L0 0Z" fill="#396d92"></path><path d="M0 163L10.2 176.5C20.3 190 40.7 217 61.2 235C81.7 253 102.3 262 122.8 262C143.3 262 163.7 253 184 254.5C204.3 256 224.7 268 245.2 265C265.7 262 286.3 244 306.8 230.5C327.3 217 347.7 208 368.2 206.5C388.7 205 409.3 211 429.8 220C450.3 229 470.7 241 491 226C511.3 211 531.7 169 552.2 169C572.7 169 593.3 211 613.8 217C634.3 223 654.7 193 664.8 178L675 163L675 71L664.8 84.5C654.7 98 634.3 125 613.8 123.5C593.3 122 572.7 92 552.2 89C531.7 86 511.3 110 491 119C470.7 128 450.3 122 429.8 113C409.3 104 388.7 92 368.2 92C347.7 92 327.3 104 306.8 114.5C286.3 125 265.7 134 245.2 134C224.7 134 204.3 125 184 111.5C163.7 98 143.3 80 122.8 84.5C102.3 89 81.7 116 61.2 119C40.7 122 20.3 101 10.2 90.5L0 80Z" fill="#7396b2"></path><path d="M0 208L10.2 223C20.3 238 40.7 268 61.2 284.5C81.7 301 102.3 304 122.8 307C143.3 310 163.7 313 184 322C204.3 331 224.7 346 245.2 350.5C265.7 355 286.3 349 306.8 337C327.3 325 347.7 307 368.2 304C388.7 301 409.3 313 429.8 317.5C450.3 322 470.7 319 491 304C511.3 289 531.7 262 552.2 257.5C572.7 253 593.3 271 613.8 277C634.3 283 654.7 277 664.8 274L675 271L675 161L664.8 176C654.7 191 634.3 221 613.8 215C593.3 209 572.7 167 552.2 167C531.7 167 511.3 209 491 224C470.7 239 450.3 227 429.8 218C409.3 209 388.7 203 368.2 204.5C347.7 206 327.3 215 306.8 228.5C286.3 242 265.7 260 245.2 263C224.7 266 204.3 254 184 252.5C163.7 251 143.3 260 122.8 260C102.3 260 81.7 251 61.2 233C40.7 215 20.3 188 10.2 174.5L0 161Z" fill="#aac0d4"></path><path d="M0 487L10.2 494.5C20.3 502 40.7 517 61.2 526C81.7 535 102.3 538 122.8 550C143.3 562 163.7 583 184 580C204.3 577 224.7 550 245.2 550C265.7 550 286.3 577 306.8 592C327.3 607 347.7 610 368.2 617.5C388.7 625 409.3 637 429.8 629.5C450.3 622 470.7 595 491 580C511.3 565 531.7 562 552.2 568C572.7 574 593.3 589 613.8 566.5C634.3 544 654.7 484 664.8 454L675 424L675 269L664.8 272C654.7 275 634.3 281 613.8 275C593.3 269 572.7 251 552.2 255.5C531.7 260 511.3 287 491 302C470.7 317 450.3 320 429.8 315.5C409.3 311 388.7 299 368.2 302C347.7 305 327.3 323 306.8 335C286.3 347 265.7 353 245.2 348.5C224.7 344 204.3 329 184 320C163.7 311 143.3 308 122.8 305C102.3 302 81.7 299 61.2 282.5C40.7 266 20.3 236 10.2 221L0 206Z" fill="#c0d1e1"></path><path d="M0 541L10.2 559C20.3 577 40.7 613 61.2 634C81.7 655 102.3 661 122.8 668.5C143.3 676 163.7 685 184 682C204.3 679 224.7 664 245.2 656.5C265.7 649 286.3 649 306.8 653.5C327.3 658 347.7 667 368.2 679C388.7 691 409.3 706 429.8 703C450.3 700 470.7 679 491 673C511.3 667 531.7 676 552.2 685C572.7 694 593.3 703 613.8 673C634.3 643 654.7 574 664.8 539.5L675 505L675 422L664.8 452C654.7 482 634.3 542 613.8 564.5C593.3 587 572.7 572 552.2 566C531.7 560 511.3 563 491 578C470.7 593 450.3 620 429.8 627.5C409.3 635 388.7 623 368.2 615.5C347.7 608 327.3 605 306.8 590C286.3 575 265.7 548 245.2 548C224.7 548 204.3 575 184 578C163.7 581 143.3 560 122.8 548C102.3 536 81.7 533 61.2 524C40.7 515 20.3 500 10.2 492.5L0 485Z" fill="#aac0d4"></path><path d="M0 595L10.2 619C20.3 643 40.7 691 61.2 715C81.7 739 102.3 739 122.8 748C143.3 757 163.7 775 184 770.5C204.3 766 224.7 739 245.2 722.5C265.7 706 286.3 700 306.8 703C327.3 706 347.7 718 368.2 731.5C388.7 745 409.3 760 429.8 754C450.3 748 470.7 721 491 712C511.3 703 531.7 712 552.2 724C572.7 736 593.3 751 613.8 728.5C634.3 706 654.7 646 664.8 616L675 586L675 503L664.8 537.5C654.7 572 634.3 641 613.8 671C593.3 701 572.7 692 552.2 683C531.7 674 511.3 665 491 671C470.7 677 450.3 698 429.8 701C409.3 704 388.7 689 368.2 677C347.7 665 327.3 656 306.8 651.5C286.3 647 265.7 647 245.2 654.5C224.7 662 204.3 677 184 680C163.7 683 143.3 674 122.8 666.5C102.3 659 81.7 653 61.2 632C40.7 611 20.3 575 10.2 557L0 539Z" fill="#7396b2"></path><path d="M0 901L10.2 901C20.3 901 40.7 901 61.2 901C81.7 901 102.3 901 122.8 901C143.3 901 163.7 901 184 901C204.3 901 224.7 901 245.2 901C265.7 901 286.3 901 306.8 901C327.3 901 347.7 901 368.2 901C388.7 901 409.3 901 429.8 901C450.3 901 470.7 901 491 901C511.3 901 531.7 901 552.2 901C572.7 901 593.3 901 613.8 901C634.3 901 654.7 901 664.8 901L675 901L675 584L664.8 614C654.7 644 634.3 704 613.8 726.5C593.3 749 572.7 734 552.2 722C531.7 710 511.3 701 491 710C470.7 719 450.3 746 429.8 752C409.3 758 388.7 743 368.2 729.5C347.7 716 327.3 704 306.8 701C286.3 698 265.7 704 245.2 720.5C224.7 737 204.3 764 184 768.5C163.7 773 143.3 755 122.8 746C102.3 737 81.7 737 61.2 713C40.7 689 20.3 641 10.2 617L0 593Z" fill="#396d92"></path></svg>