<svg id="visual" viewBox="0 0 675 900" width="675" height="900" xmlns="http://www.w3.org/2000/svg" xmlns:xlink="http://www.w3.org/1999/xlink" version="1.1"><path d="M0 109L10.2 118C20.3 127 40.7 145 61.2 175C81.7 205 102.3 247 122.8 247C143.3 247 163.7 205 184 205C204.3 205 224.7 247 245.2 248.5C265.7 250 286.3 211 306.8 181C327.3 151 347.7 130 368.2 142C388.7 154 409.3 199 429.8 214C450.3 229 470.7 214 491 194.5C511.3 175 531.7 151 552.2 164.5C572.7 178 593.3 229 613.8 259C634.3 289 654.7 298 664.8 302.5L675 307L675 0L664.8 0C654.7 0 634.3 0 613.8 0C593.3 0 572.7 0 552.2 0C531.7 0 511.3 0 491 0C470.7 0 450.3 0 429.8 0C409.3 0 388.7 0 368.2 0C347.7 0 327.3 0 306.8 0C286.3 0 265.7 0 245.2 0C224.7 0 204.3 0 184 0C163.7 0 143.3 0 122.8 0C102.3 0 81.7 0 61.2 0C40.7 0 20.3 0 10.2 0L0 0Z" fill="#396d92"></path><path d="M0 226L10.2 239.5C20.3 253 40.7 280 61.2 307C81.7 334 102.3 361 122.8 364C143.3 367 163.7 346 184 350.5C204.3 355 224.7 385 245.2 383.5C265.7 382 286.3 349 306.8 313C327.3 277 347.7 238 368.2 235C388.7 232 409.3 265 429.8 290.5C450.3 316 470.7 334 491 326.5C511.3 319 531.7 286 552.2 283C572.7 280 593.3 307 613.8 325C634.3 343 654.7 352 664.8 356.5L675 361L675 305L664.8 300.5C654.7 296 634.3 287 613.8 257C593.3 227 572.7 176 552.2 162.5C531.7 149 511.3 173 491 192.5C470.7 212 450.3 227 429.8 212C409.3 197 388.7 152 368.2 140C347.7 128 327.3 149 306.8 179C286.3 209 265.7 248 245.2 246.5C224.7 245 204.3 203 184 203C163.7 203 143.3 245 122.8 245C102.3 245 81.7 203 61.2 173C40.7 143 20.3 125 10.2 116L0 107Z" fill="#7396b2"></path><path d="M0 388L10.2 400C20.3 412 40.7 436 61.2 452.5C81.7 469 102.3 478 122.8 479.5C143.3 481 163.7 475 184 476.5C204.3 478 224.7 487 245.2 490C265.7 493 286.3 490 306.8 475C327.3 460 347.7 433 368.2 425.5C388.7 418 409.3 430 429.8 437.5C450.3 445 470.7 448 491 449.5C511.3 451 531.7 451 552.2 452.5C572.7 454 593.3 457 613.8 470.5C634.3 484 654.7 508 664.8 520L675 532L675 359L664.8 354.5C654.7 350 634.3 341 613.8 323C593.3 305 572.7 278 552.2 281C531.7 284 511.3 317 491 324.5C470.7 332 450.3 314 429.8 288.5C409.3 263 388.7 230 368.2 233C347.7 236 327.3 275 306.8 311C286.3 347 265.7 380 245.2 381.5C224.7 383 204.3 353 184 348.5C163.7 344 143.3 365 122.8 362C102.3 359 81.7 332 61.2 305C40.7 278 20.3 251 10.2 237.5L0 224Z" fill="#aac0d4"></path><path d="M0 505L10.2 506.5C20.3 508 40.7 511 61.2 526C81.7 541 102.3 568 122.8 571C143.3 574 163.7 553 184 550C204.3 547 224.7 562 245.2 574C265.7 586 286.3 595 306.8 580C327.3 565 347.7 526 368.2 518.5C388.7 511 409.3 535 429.8 541C450.3 547 470.7 535 491 526C511.3 517 531.7 511 552.2 521.5C572.7 532 593.3 559 613.8 580C634.3 601 654.7 616 664.8 623.5L675 631L675 530L664.8 518C654.7 506 634.3 482 613.8 468.5C593.3 455 572.7 452 552.2 450.5C531.7 449 511.3 449 491 447.5C470.7 446 450.3 443 429.8 435.5C409.3 428 388.7 416 368.2 423.5C347.7 431 327.3 458 306.8 473C286.3 488 265.7 491 245.2 488C224.7 485 204.3 476 184 474.5C163.7 473 143.3 479 122.8 477.5C102.3 476 81.7 467 61.2 450.5C40.7 434 20.3 410 10.2 398L0 386Z" fill="#c0d1e1"></path><path d="M0 604L10.2 596.5C20.3 589 40.7 574 61.2 580C81.7 586 102.3 613 122.8 616C143.3 619 163.7 598 184 602.5C204.3 607 224.7 637 245.2 658C265.7 679 286.3 691 306.8 667C327.3 643 347.7 583 368.2 575.5C388.7 568 409.3 613 429.8 619C450.3 625 470.7 592 491 580C511.3 568 531.7 577 552.2 598C572.7 619 593.3 652 613.8 670C634.3 688 654.7 691 664.8 692.5L675 694L675 629L664.8 621.5C654.7 614 634.3 599 613.8 578C593.3 557 572.7 530 552.2 519.5C531.7 509 511.3 515 491 524C470.7 533 450.3 545 429.8 539C409.3 533 388.7 509 368.2 516.5C347.7 524 327.3 563 306.8 578C286.3 593 265.7 584 245.2 572C224.7 560 204.3 545 184 548C163.7 551 143.3 572 122.8 569C102.3 566 81.7 539 61.2 524C40.7 509 20.3 506 10.2 504.5L0 503Z" fill="#aac0d4"></path><path d="M0 820L10.2 815.5C20.3 811 40.7 802 61.2 805C81.7 808 102.3 823 122.8 835C143.3 847 163.7 856 184 860.5C204.3 865 224.7 865 245.2 863.5C265.7 862 286.3 859 306.8 854.5C327.3 850 347.7 844 368.2 839.5C388.7 835 409.3 832 429.8 832C450.3 832 470.7 835 491 833.5C511.3 832 531.7 826 552.2 823C572.7 820 593.3 820 613.8 818.5C634.3 817 654.7 814 664.8 812.5L675 811L675 692L664.8 690.5C654.7 689 634.3 686 613.8 668C593.3 650 572.7 617 552.2 596C531.7 575 511.3 566 491 578C470.7 590 450.3 623 429.8 617C409.3 611 388.7 566 368.2 573.5C347.7 581 327.3 641 306.8 665C286.3 689 265.7 677 245.2 656C224.7 635 204.3 605 184 600.5C163.7 596 143.3 617 122.8 614C102.3 611 81.7 584 61.2 578C40.7 572 20.3 587 10.2 594.5L0 602Z" fill="#7396b2"></path><path d="M0 901L10.2 901C20.3 901 40.7 901 61.2 901C81.7 901 102.3 901 122.8 901C143.3 901 163.7 901 184 901C204.3 901 224.7 901 245.2 901C265.7 901 286.3 901 306.8 901C327.3 901 347.7 901 368.2 901C388.7 901 409.3 901 429.8 901C450.3 901 470.7 901 491 901C511.3 901 531.7 901 552.2 901C572.7 901 593.3 901 613.8 901C634.3 901 654.7 901 664.8 901L675 901L675 809L664.8 810.5C654.7 812 634.3 815 613.8 816.5C593.3 818 572.7 818 552.2 821C531.7 824 511.3 830 491 831.5C470.7 833 450.3 830 429.8 830C409.3 830 388.7 833 368.2 837.5C347.7 842 327.3 848 306.8 852.5C286.3 857 265.7 860 245.2 861.5C224.7 863 204.3 863 184 858.5C163.7 854 143.3 845 122.8 833C102.3 821 81.7 806 61.2 803C40.7 800 20.3 809 10.2 813.5L0 818Z" fill="#396d92"></path></svg>