<svg id="visual" viewBox="0 0 675 900" width="675" height="900" xmlns="http://www.w3.org/2000/svg" xmlns:xlink="http://www.w3.org/1999/xlink" version="1.1"><path d="M0 199L10.2 188.5C20.3 178 40.7 157 61.2 176.5C81.7 196 102.3 256 122.8 266.5C143.3 277 163.7 238 184 215.5C204.3 193 224.7 187 245.2 169C265.7 151 286.3 121 306.8 137.5C327.3 154 347.7 217 368.2 236.5C388.7 256 409.3 232 429.8 224.5C450.3 217 470.7 226 491 211C511.3 196 531.7 157 552.2 161.5C572.7 166 593.3 214 613.8 220C634.3 226 654.7 190 664.8 172L675 154L675 0L664.8 0C654.7 0 634.3 0 613.8 0C593.3 0 572.7 0 552.2 0C531.7 0 511.3 0 491 0C470.7 0 450.3 0 429.8 0C409.3 0 388.7 0 368.2 0C347.7 0 327.3 0 306.8 0C286.3 0 265.7 0 245.2 0C224.7 0 204.3 0 184 0C163.7 0 143.3 0 122.8 0C102.3 0 81.7 0 61.2 0C40.7 0 20.3 0 10.2 0L0 0Z" fill="#396d92"></path><path d="M0 271L10.2 254.5C20.3 238 40.7 205 61.2 226C81.7 247 102.3 322 122.8 332.5C143.3 343 163.7 289 184 263.5C204.3 238 224.7 241 245.2 229C265.7 217 286.3 190 306.8 209.5C327.3 229 347.7 295 368.2 317.5C388.7 340 409.3 319 429.8 311.5C450.3 304 470.7 310 491 299.5C511.3 289 531.7 262 552.2 260.5C572.7 259 593.3 283 613.8 278.5C634.3 274 654.7 241 664.8 224.5L675 208L675 152L664.8 170C654.7 188 634.3 224 613.8 218C593.3 212 572.7 164 552.2 159.5C531.7 155 511.3 194 491 209C470.7 224 450.3 215 429.8 222.5C409.3 230 388.7 254 368.2 234.5C347.7 215 327.3 152 306.8 135.5C286.3 119 265.7 149 245.2 167C224.7 185 204.3 191 184 213.5C163.7 236 143.3 275 122.8 264.5C102.3 254 81.7 194 61.2 174.5C40.7 155 20.3 176 10.2 186.5L0 197Z" fill="#7396b2"></path><path d="M0 406L10.2 388C20.3 370 40.7 334 61.2 340C81.7 346 102.3 394 122.8 412C143.3 430 163.7 418 184 410.5C204.3 403 224.7 400 245.2 380.5C265.7 361 286.3 325 306.8 344.5C327.3 364 347.7 439 368.2 458.5C388.7 478 409.3 442 429.8 427C450.3 412 470.7 418 491 406C511.3 394 531.7 364 552.2 367C572.7 370 593.3 406 613.8 412C634.3 418 654.7 394 664.8 382L675 370L675 206L664.8 222.5C654.7 239 634.3 272 613.8 276.5C593.3 281 572.7 257 552.2 258.5C531.7 260 511.3 287 491 297.5C470.7 308 450.3 302 429.8 309.5C409.3 317 388.7 338 368.2 315.5C347.7 293 327.3 227 306.8 207.5C286.3 188 265.7 215 245.2 227C224.7 239 204.3 236 184 261.5C163.7 287 143.3 341 122.8 330.5C102.3 320 81.7 245 61.2 224C40.7 203 20.3 236 10.2 252.5L0 269Z" fill="#aac0d4"></path><path d="M0 559L10.2 550C20.3 541 40.7 523 61.2 521.5C81.7 520 102.3 535 122.8 550C143.3 565 163.7 580 184 572.5C204.3 565 224.7 535 245.2 512.5C265.7 490 286.3 475 306.8 491.5C327.3 508 347.7 556 368.2 560.5C388.7 565 409.3 526 429.8 517C450.3 508 470.7 529 491 526C511.3 523 531.7 496 552.2 493C572.7 490 593.3 511 613.8 523C634.3 535 654.7 538 664.8 539.5L675 541L675 368L664.8 380C654.7 392 634.3 416 613.8 410C593.3 404 572.7 368 552.2 365C531.7 362 511.3 392 491 404C470.7 416 450.3 410 429.8 425C409.3 440 388.7 476 368.2 456.5C347.7 437 327.3 362 306.8 342.5C286.3 323 265.7 359 245.2 378.5C224.7 398 204.3 401 184 408.5C163.7 416 143.3 428 122.8 410C102.3 392 81.7 344 61.2 338C40.7 332 20.3 368 10.2 386L0 404Z" fill="#c0d1e1"></path><path d="M0 766L10.2 763C20.3 760 40.7 754 61.2 743.5C81.7 733 102.3 718 122.8 719.5C143.3 721 163.7 739 184 752.5C204.3 766 224.7 775 245.2 767.5C265.7 760 286.3 736 306.8 731.5C327.3 727 347.7 742 368.2 739C388.7 736 409.3 715 429.8 707.5C450.3 700 470.7 706 491 722.5C511.3 739 531.7 766 552.2 778C572.7 790 593.3 787 613.8 779.5C634.3 772 654.7 760 664.8 754L675 748L675 539L664.8 537.5C654.7 536 634.3 533 613.8 521C593.3 509 572.7 488 552.2 491C531.7 494 511.3 521 491 524C470.7 527 450.3 506 429.8 515C409.3 524 388.7 563 368.2 558.5C347.7 554 327.3 506 306.8 489.5C286.3 473 265.7 488 245.2 510.5C224.7 533 204.3 563 184 570.5C163.7 578 143.3 563 122.8 548C102.3 533 81.7 518 61.2 519.5C40.7 521 20.3 539 10.2 548L0 557Z" fill="#aac0d4"></path><path d="M0 820L10.2 817C20.3 814 40.7 808 61.2 808C81.7 808 102.3 814 122.8 814C143.3 814 163.7 808 184 815.5C204.3 823 224.7 844 245.2 844C265.7 844 286.3 823 306.8 817C327.3 811 347.7 820 368.2 821.5C388.7 823 409.3 817 429.8 812.5C450.3 808 470.7 805 491 811C511.3 817 531.7 832 552.2 842.5C572.7 853 593.3 859 613.8 856C634.3 853 654.7 841 664.8 835L675 829L675 746L664.8 752C654.7 758 634.3 770 613.8 777.5C593.3 785 572.7 788 552.2 776C531.7 764 511.3 737 491 720.5C470.7 704 450.3 698 429.8 705.5C409.3 713 388.7 734 368.2 737C347.7 740 327.3 725 306.8 729.5C286.3 734 265.7 758 245.2 765.5C224.7 773 204.3 764 184 750.5C163.7 737 143.3 719 122.8 717.5C102.3 716 81.7 731 61.2 741.5C40.7 752 20.3 758 10.2 761L0 764Z" fill="#7396b2"></path><path d="M0 901L10.2 901C20.3 901 40.7 901 61.2 901C81.7 901 102.3 901 122.8 901C143.3 901 163.7 901 184 901C204.3 901 224.7 901 245.2 901C265.7 901 286.3 901 306.8 901C327.3 901 347.7 901 368.2 901C388.7 901 409.3 901 429.8 901C450.3 901 470.7 901 491 901C511.3 901 531.7 901 552.2 901C572.7 901 593.3 901 613.8 901C634.3 901 654.7 901 664.8 901L675 901L675 827L664.8 833C654.7 839 634.3 851 613.8 854C593.3 857 572.7 851 552.2 840.5C531.7 830 511.3 815 491 809C470.7 803 450.3 806 429.8 810.5C409.3 815 388.7 821 368.2 819.5C347.7 818 327.3 809 306.8 815C286.3 821 265.7 842 245.2 842C224.7 842 204.3 821 184 813.5C163.7 806 143.3 812 122.8 812C102.3 812 81.7 806 61.2 806C40.7 806 20.3 812 10.2 815L0 818Z" fill="#396d92"></path></svg>