<svg id="visual" viewBox="0 0 675 900" width="675" height="900" xmlns="http://www.w3.org/2000/svg" xmlns:xlink="http://www.w3.org/1999/xlink" version="1.1"><path d="M0 64L10.2 68.5C20.3 73 40.7 82 61.2 77.5C81.7 73 102.3 55 122.8 56.5C143.3 58 163.7 79 184 85C204.3 91 224.7 82 245.2 71.5C265.7 61 286.3 49 306.8 50.5C327.3 52 347.7 67 368.2 67C388.7 67 409.3 52 429.8 52C450.3 52 470.7 67 491 76C511.3 85 531.7 88 552.2 86.5C572.7 85 593.3 79 613.8 70C634.3 61 654.7 49 664.8 43L675 37L675 0L664.8 0C654.7 0 634.3 0 613.8 0C593.3 0 572.7 0 552.2 0C531.7 0 511.3 0 491 0C470.7 0 450.3 0 429.8 0C409.3 0 388.7 0 368.2 0C347.7 0 327.3 0 306.8 0C286.3 0 265.7 0 245.2 0C224.7 0 204.3 0 184 0C163.7 0 143.3 0 122.8 0C102.3 0 81.7 0 61.2 0C40.7 0 20.3 0 10.2 0L0 0Z" fill="#396d92"></path><path d="M0 136L10.2 145C20.3 154 40.7 172 61.2 176.5C81.7 181 102.3 172 122.8 170.5C143.3 169 163.7 175 184 170.5C204.3 166 224.7 151 245.2 134.5C265.7 118 286.3 100 306.8 98.5C327.3 97 347.7 112 368.2 124C388.7 136 409.3 145 429.8 145C450.3 145 470.7 136 491 137.5C511.3 139 531.7 151 552.2 164.5C572.7 178 593.3 193 613.8 185.5C634.3 178 654.7 148 664.8 133L675 118L675 35L664.8 41C654.7 47 634.3 59 613.8 68C593.3 77 572.7 83 552.2 84.5C531.7 86 511.3 83 491 74C470.7 65 450.3 50 429.8 50C409.3 50 388.7 65 368.2 65C347.7 65 327.3 50 306.8 48.5C286.3 47 265.7 59 245.2 69.5C224.7 80 204.3 89 184 83C163.7 77 143.3 56 122.8 54.5C102.3 53 81.7 71 61.2 75.5C40.7 80 20.3 71 10.2 66.5L0 62Z" fill="#7396b2"></path><path d="M0 217L10.2 245.5C20.3 274 40.7 331 61.2 364C81.7 397 102.3 406 122.8 401.5C143.3 397 163.7 379 184 367C204.3 355 224.7 349 245.2 334C265.7 319 286.3 295 306.8 283C327.3 271 347.7 271 368.2 269.5C388.7 268 409.3 265 429.8 262C450.3 259 470.7 256 491 272.5C511.3 289 531.7 325 552.2 347.5C572.7 370 593.3 379 613.8 376C634.3 373 654.7 358 664.8 350.5L675 343L675 116L664.8 131C654.7 146 634.3 176 613.8 183.5C593.3 191 572.7 176 552.2 162.5C531.7 149 511.3 137 491 135.5C470.7 134 450.3 143 429.8 143C409.3 143 388.7 134 368.2 122C347.7 110 327.3 95 306.8 96.5C286.3 98 265.7 116 245.2 132.5C224.7 149 204.3 164 184 168.5C163.7 173 143.3 167 122.8 168.5C102.3 170 81.7 179 61.2 174.5C40.7 170 20.3 152 10.2 143L0 134Z" fill="#aac0d4"></path><path d="M0 487L10.2 502C20.3 517 40.7 547 61.2 565C81.7 583 102.3 589 122.8 586C143.3 583 163.7 571 184 569.5C204.3 568 224.7 577 245.2 590.5C265.7 604 286.3 622 306.8 629.5C327.3 637 347.7 634 368.2 613C388.7 592 409.3 553 429.8 544C450.3 535 470.7 556 491 568C511.3 580 531.7 583 552.2 592C572.7 601 593.3 616 613.8 608.5C634.3 601 654.7 571 664.8 556L675 541L675 341L664.8 348.5C654.7 356 634.3 371 613.8 374C593.3 377 572.7 368 552.2 345.5C531.7 323 511.3 287 491 270.5C470.7 254 450.3 257 429.8 260C409.3 263 388.7 266 368.2 267.5C347.7 269 327.3 269 306.8 281C286.3 293 265.7 317 245.2 332C224.7 347 204.3 353 184 365C163.7 377 143.3 395 122.8 399.5C102.3 404 81.7 395 61.2 362C40.7 329 20.3 272 10.2 243.5L0 215Z" fill="#c0d1e1"></path><path d="M0 658L10.2 659.5C20.3 661 40.7 664 61.2 665.5C81.7 667 102.3 667 122.8 665.5C143.3 664 163.7 661 184 671.5C204.3 682 224.7 706 245.2 715C265.7 724 286.3 718 306.8 713.5C327.3 709 347.7 706 368.2 701.5C388.7 697 409.3 691 429.8 691C450.3 691 470.7 697 491 706C511.3 715 531.7 727 552.2 743.5C572.7 760 593.3 781 613.8 782.5C634.3 784 654.7 766 664.8 757L675 748L675 539L664.8 554C654.7 569 634.3 599 613.8 606.5C593.3 614 572.7 599 552.2 590C531.7 581 511.3 578 491 566C470.7 554 450.3 533 429.8 542C409.3 551 388.7 590 368.2 611C347.7 632 327.3 635 306.8 627.5C286.3 620 265.7 602 245.2 588.5C224.7 575 204.3 566 184 567.5C163.7 569 143.3 581 122.8 584C102.3 587 81.7 581 61.2 563C40.7 545 20.3 515 10.2 500L0 485Z" fill="#aac0d4"></path><path d="M0 820L10.2 815.5C20.3 811 40.7 802 61.2 802C81.7 802 102.3 811 122.8 811C143.3 811 163.7 802 184 806.5C204.3 811 224.7 829 245.2 841C265.7 853 286.3 859 306.8 859C327.3 859 347.7 853 368.2 844C388.7 835 409.3 823 429.8 826C450.3 829 470.7 847 491 854.5C511.3 862 531.7 859 552.2 856C572.7 853 593.3 850 613.8 847C634.3 844 654.7 841 664.8 839.5L675 838L675 746L664.8 755C654.7 764 634.3 782 613.8 780.5C593.3 779 572.7 758 552.2 741.5C531.7 725 511.3 713 491 704C470.7 695 450.3 689 429.8 689C409.3 689 388.7 695 368.2 699.5C347.7 704 327.3 707 306.8 711.5C286.3 716 265.7 722 245.2 713C224.7 704 204.3 680 184 669.5C163.7 659 143.3 662 122.8 663.5C102.3 665 81.7 665 61.2 663.5C40.7 662 20.3 659 10.2 657.5L0 656Z" fill="#7396b2"></path><path d="M0 901L10.2 901C20.3 901 40.7 901 61.2 901C81.7 901 102.3 901 122.8 901C143.3 901 163.7 901 184 901C204.3 901 224.7 901 245.2 901C265.7 901 286.3 901 306.8 901C327.3 901 347.7 901 368.2 901C388.7 901 409.3 901 429.8 901C450.3 901 470.7 901 491 901C511.3 901 531.7 901 552.2 901C572.7 901 593.3 901 613.8 901C634.3 901 654.7 901 664.8 901L675 901L675 836L664.8 837.5C654.7 839 634.3 842 613.8 845C593.3 848 572.7 851 552.2 854C531.7 857 511.3 860 491 852.5C470.7 845 450.3 827 429.8 824C409.3 821 388.7 833 368.2 842C347.7 851 327.3 857 306.8 857C286.3 857 265.7 851 245.2 839C224.7 827 204.3 809 184 804.5C163.7 800 143.3 809 122.8 809C102.3 809 81.7 800 61.2 800C40.7 800 20.3 809 10.2 813.5L0 818Z" fill="#396d92"></path></svg>