<svg id="visual" viewBox="0 0 675 900" width="675" height="900" xmlns="http://www.w3.org/2000/svg" xmlns:xlink="http://www.w3.org/1999/xlink" version="1.1"><path d="M0 154L10.2 182.5C20.3 211 40.7 268 61.2 286C81.7 304 102.3 283 122.8 274C143.3 265 163.7 268 184 274C204.3 280 224.7 289 245.2 274C265.7 259 286.3 220 306.8 223C327.3 226 347.7 271 368.2 265C388.7 259 409.3 202 429.8 178C450.3 154 470.7 163 491 191.5C511.3 220 531.7 268 552.2 299.5C572.7 331 593.3 346 613.8 332.5C634.3 319 654.7 277 664.8 256L675 235L675 0L664.8 0C654.7 0 634.3 0 613.8 0C593.3 0 572.7 0 552.2 0C531.7 0 511.3 0 491 0C470.7 0 450.3 0 429.8 0C409.3 0 388.7 0 368.2 0C347.7 0 327.3 0 306.8 0C286.3 0 265.7 0 245.2 0C224.7 0 204.3 0 184 0C163.7 0 143.3 0 122.8 0C102.3 0 81.7 0 61.2 0C40.7 0 20.3 0 10.2 0L0 0Z" fill="#396d92"></path><path d="M0 271L10.2 290.5C20.3 310 40.7 349 61.2 361C81.7 373 102.3 358 122.8 346C143.3 334 163.7 325 184 325C204.3 325 224.7 334 245.2 322C265.7 310 286.3 277 306.8 284.5C327.3 292 347.7 340 368.2 337C388.7 334 409.3 280 429.8 259C450.3 238 470.7 250 491 280C511.3 310 531.7 358 552.2 389.5C572.7 421 593.3 436 613.8 418C634.3 400 654.7 349 664.8 323.5L675 298L675 233L664.8 254C654.7 275 634.3 317 613.8 330.5C593.3 344 572.7 329 552.2 297.5C531.7 266 511.3 218 491 189.5C470.7 161 450.3 152 429.8 176C409.3 200 388.7 257 368.2 263C347.7 269 327.3 224 306.8 221C286.3 218 265.7 257 245.2 272C224.7 287 204.3 278 184 272C163.7 266 143.3 263 122.8 272C102.3 281 81.7 302 61.2 284C40.7 266 20.3 209 10.2 180.5L0 152Z" fill="#7396b2"></path><path d="M0 325L10.2 346C20.3 367 40.7 409 61.2 430C81.7 451 102.3 451 122.8 445C143.3 439 163.7 427 184 421C204.3 415 224.7 415 245.2 401.5C265.7 388 286.3 361 306.8 365.5C327.3 370 347.7 406 368.2 404.5C388.7 403 409.3 364 429.8 340C450.3 316 470.7 307 491 328C511.3 349 531.7 400 552.2 431.5C572.7 463 593.3 475 613.8 467.5C634.3 460 654.7 433 664.8 419.5L675 406L675 296L664.8 321.5C654.7 347 634.3 398 613.8 416C593.3 434 572.7 419 552.2 387.5C531.7 356 511.3 308 491 278C470.7 248 450.3 236 429.8 257C409.3 278 388.7 332 368.2 335C347.7 338 327.3 290 306.8 282.5C286.3 275 265.7 308 245.2 320C224.7 332 204.3 323 184 323C163.7 323 143.3 332 122.8 344C102.3 356 81.7 371 61.2 359C40.7 347 20.3 308 10.2 288.5L0 269Z" fill="#aac0d4"></path><path d="M0 379L10.2 403C20.3 427 40.7 475 61.2 497.5C81.7 520 102.3 517 122.8 524.5C143.3 532 163.7 550 184 557.5C204.3 565 224.7 562 245.2 539.5C265.7 517 286.3 475 306.8 475C327.3 475 347.7 517 368.2 515.5C388.7 514 409.3 469 429.8 446.5C450.3 424 470.7 424 491 449.5C511.3 475 531.7 526 552.2 559C572.7 592 593.3 607 613.8 590.5C634.3 574 654.7 526 664.8 502L675 478L675 404L664.8 417.5C654.7 431 634.3 458 613.8 465.5C593.3 473 572.7 461 552.2 429.5C531.7 398 511.3 347 491 326C470.7 305 450.3 314 429.8 338C409.3 362 388.7 401 368.2 402.5C347.7 404 327.3 368 306.8 363.5C286.3 359 265.7 386 245.2 399.5C224.7 413 204.3 413 184 419C163.7 425 143.3 437 122.8 443C102.3 449 81.7 449 61.2 428C40.7 407 20.3 365 10.2 344L0 323Z" fill="#c0d1e1"></path><path d="M0 649L10.2 653.5C20.3 658 40.7 667 61.2 673C81.7 679 102.3 682 122.8 680.5C143.3 679 163.7 673 184 683.5C204.3 694 224.7 721 245.2 715C265.7 709 286.3 670 306.8 664C327.3 658 347.7 685 368.2 707.5C388.7 730 409.3 748 429.8 742C450.3 736 470.7 706 491 709C511.3 712 531.7 748 552.2 761.5C572.7 775 593.3 766 613.8 737.5C634.3 709 654.7 661 664.8 637L675 613L675 476L664.8 500C654.7 524 634.3 572 613.8 588.5C593.3 605 572.7 590 552.2 557C531.7 524 511.3 473 491 447.5C470.7 422 450.3 422 429.8 444.5C409.3 467 388.7 512 368.2 513.5C347.7 515 327.3 473 306.8 473C286.3 473 265.7 515 245.2 537.5C224.7 560 204.3 563 184 555.5C163.7 548 143.3 530 122.8 522.5C102.3 515 81.7 518 61.2 495.5C40.7 473 20.3 425 10.2 401L0 377Z" fill="#aac0d4"></path><path d="M0 802L10.2 812.5C20.3 823 40.7 844 61.2 845.5C81.7 847 102.3 829 122.8 829C143.3 829 163.7 847 184 853C204.3 859 224.7 853 245.2 845.5C265.7 838 286.3 829 306.8 823C327.3 817 347.7 814 368.2 821.5C388.7 829 409.3 847 429.8 854.5C450.3 862 470.7 859 491 859C511.3 859 531.7 862 552.2 862C572.7 862 593.3 859 613.8 848.5C634.3 838 654.7 820 664.8 811L675 802L675 611L664.8 635C654.7 659 634.3 707 613.8 735.5C593.3 764 572.7 773 552.2 759.5C531.7 746 511.3 710 491 707C470.7 704 450.3 734 429.8 740C409.3 746 388.7 728 368.2 705.5C347.7 683 327.3 656 306.8 662C286.3 668 265.7 707 245.2 713C224.7 719 204.3 692 184 681.5C163.7 671 143.3 677 122.8 678.5C102.3 680 81.7 677 61.2 671C40.7 665 20.3 656 10.2 651.5L0 647Z" fill="#7396b2"></path><path d="M0 901L10.2 901C20.3 901 40.7 901 61.2 901C81.7 901 102.3 901 122.8 901C143.3 901 163.7 901 184 901C204.3 901 224.7 901 245.2 901C265.7 901 286.3 901 306.8 901C327.3 901 347.7 901 368.2 901C388.7 901 409.3 901 429.8 901C450.3 901 470.7 901 491 901C511.3 901 531.7 901 552.2 901C572.7 901 593.3 901 613.8 901C634.3 901 654.7 901 664.8 901L675 901L675 800L664.8 809C654.7 818 634.3 836 613.8 846.5C593.3 857 572.7 860 552.2 860C531.7 860 511.3 857 491 857C470.7 857 450.3 860 429.8 852.5C409.3 845 388.7 827 368.2 819.5C347.7 812 327.3 815 306.8 821C286.3 827 265.7 836 245.2 843.5C224.7 851 204.3 857 184 851C163.7 845 143.3 827 122.8 827C102.3 827 81.7 845 61.2 843.5C40.7 842 20.3 821 10.2 810.5L0 800Z" fill="#396d92"></path></svg>